<?xml version="1.0" encoding="utf-8"?>
<!-- Generator: Adobe Illustrator 16.0.0, SVG Export Plug-In . SVG Version: 6.00 Build 0)  -->
<!DOCTYPE svg PUBLIC "-//W3C//DTD SVG 1.1//EN" "http://www.w3.org/Graphics/SVG/1.1/DTD/svg11.dtd">
<svg version="1.1" id="Layer_1" xmlns="http://www.w3.org/2000/svg" xmlns:xlink="http://www.w3.org/1999/xlink" x="0px" y="0px"
	 width="441.81px" height="79.749px" viewBox="0 0 441.81 79.749" enable-background="new 0 0 441.81 79.749" xml:space="preserve">
<g>
	<path fill="#2D2828" d="M0,8.576c1.511,0.066,3.466,0.133,5.865,0.197c2.399,0.066,4.781,0.1,7.147,0.1
		c3.154,0,6.161-0.033,9.02-0.1c2.858-0.064,4.879-0.098,6.063-0.098c7.359,0,12.864,1.446,16.511,4.337
		c3.647,2.893,5.471,6.604,5.471,11.139c0,2.301-0.542,4.584-1.626,6.851c-1.084,2.269-2.843,4.306-5.273,6.112
		c-2.433,1.809-5.653,3.238-9.661,4.288V41.6c5.52,0.592,9.857,1.774,13.012,3.549c3.154,1.774,5.388,3.894,6.703,6.357
		c1.313,2.465,1.972,5.045,1.972,7.739c0,5.783-2.186,10.416-6.556,13.899c-4.371,3.483-10.465,5.225-18.286,5.225
		c-1.446,0-3.632-0.051-6.556-0.148c-2.925-0.099-6.456-0.148-10.597-0.148c-2.498,0-4.945,0.018-7.344,0.05
		C3.466,78.155,1.511,78.238,0,78.369v-1.973c2.233-0.131,3.909-0.394,5.027-0.788c1.117-0.395,1.856-1.184,2.218-2.365
		c0.36-1.183,0.542-2.958,0.542-5.323V19.025c0-2.43-0.182-4.222-0.542-5.372c-0.362-1.149-1.119-1.938-2.268-2.366
		C3.828,10.861,2.169,10.614,0,10.548V8.576z M26.024,10.548c-2.827,0-4.683,0.56-5.569,1.676c-0.887,1.119-1.331,3.386-1.331,6.802
		V67.92c0,3.416,0.459,5.637,1.38,6.653c0.919,1.021,2.858,1.528,5.816,1.528c5.915,0,10.202-1.495,12.864-4.485
		c2.661-2.989,3.993-7.246,3.993-12.766c0-5.06-1.332-8.971-3.993-11.731c-2.662-2.76-7.048-4.14-13.16-4.14h-9.562v-1.676h8.478
		c3.614,0,6.408-0.739,8.379-2.218c1.971-1.479,3.318-3.45,4.042-5.915c0.722-2.464,1.084-5.108,1.084-7.935
		c0-4.863-0.954-8.527-2.859-10.991C33.679,11.78,30.492,10.548,26.024,10.548z"/>
	<path fill="#2D2828" d="M83.985,26.123c4.402,0,8.313,0.921,11.731,2.76c3.416,1.841,6.144,4.732,8.181,8.675
		c2.036,3.943,3.056,9.104,3.056,15.477c0,6.375-1.02,11.519-3.056,15.428c-2.038,3.911-4.765,6.77-8.181,8.576
		c-3.418,1.808-7.329,2.711-11.731,2.711c-4.337,0-8.248-0.903-11.73-2.711c-3.484-1.807-6.227-4.665-8.231-8.576
		c-2.005-3.909-3.007-9.053-3.007-15.428c0-6.373,1.001-11.533,3.007-15.477c2.004-3.942,4.747-6.834,8.231-8.675
		C75.737,27.044,79.648,26.123,83.985,26.123z M83.985,28.095c-3.417,0-6.209,1.956-8.378,5.865
		c-2.169,3.911-3.253,10.269-3.253,19.074c0,8.808,1.084,15.132,3.253,18.977c2.168,3.845,4.961,5.767,8.378,5.767
		c3.352,0,6.128-1.922,8.33-5.767c2.202-3.845,3.303-10.169,3.303-18.977c0-8.806-1.101-15.163-3.303-19.074
		C90.113,30.051,87.337,28.095,83.985,28.095z"/>
	<path fill="#2D2828" d="M145.792,26.123c2.628,0,4.781,0.345,6.457,1.035c1.676,0.69,3.072,1.627,4.189,2.81
		c1.184,1.249,2.021,2.858,2.514,4.83c0.493,1.972,0.739,4.633,0.739,7.984v26.419c0,2.76,0.542,4.633,1.626,5.62
		c1.084,0.983,2.908,1.477,5.471,1.477v2.071c-1.119-0.065-2.858-0.148-5.225-0.247c-2.366-0.098-4.699-0.148-6.999-0.148
		c-2.235,0-4.453,0.051-6.654,0.148c-2.202,0.099-3.861,0.182-4.978,0.247v-2.071c2.233,0,3.811-0.493,4.732-1.477
		c0.919-0.987,1.379-2.86,1.379-5.62V40.022c0-1.905-0.165-3.631-0.493-5.176c-0.33-1.543-1.02-2.792-2.07-3.745
		c-1.052-0.952-2.629-1.43-4.732-1.43c-3.681,0-6.688,1.513-9.02,4.534c-2.333,3.023-3.5,6.77-3.5,11.238v23.757
		c0,2.76,0.476,4.633,1.43,5.62c0.951,0.983,2.513,1.477,4.682,1.477v2.071c-1.052-0.065-2.647-0.148-4.781-0.247
		c-2.136-0.098-4.354-0.148-6.654-0.148c-2.235,0-4.568,0.051-6.999,0.148c-2.432,0.099-4.239,0.182-5.422,0.247v-2.071
		c2.563,0,4.387-0.493,5.471-1.477c1.084-0.987,1.626-2.86,1.626-5.62V38.248c0-2.957-0.493-5.142-1.479-6.555
		s-2.859-2.12-5.619-2.12v-2.069c2.103,0.197,4.14,0.295,6.112,0.295c2.232,0,4.32-0.113,6.259-0.345
		c1.938-0.229,3.729-0.574,5.372-1.035v10.744c1.708-4.073,4.058-6.933,7.048-8.575C139.269,26.946,142.439,26.123,145.792,26.123z"
		/>
	<path fill="#2D2828" d="M202.769,26.123c2.628,0,4.781,0.345,6.457,1.035c1.676,0.69,3.072,1.627,4.189,2.81
		c1.183,1.249,2.021,2.858,2.514,4.83c0.494,1.972,0.739,4.633,0.739,7.984v26.419c0,2.76,0.542,4.633,1.626,5.62
		c1.084,0.983,2.908,1.477,5.471,1.477v2.071c-1.119-0.065-2.858-0.148-5.225-0.247c-2.366-0.098-4.699-0.148-6.999-0.148
		c-2.235,0-4.453,0.051-6.654,0.148c-2.202,0.099-3.861,0.182-4.978,0.247v-2.071c2.233,0,3.811-0.493,4.731-1.477
		c0.919-0.987,1.38-2.86,1.38-5.62V40.022c0-1.905-0.164-3.631-0.493-5.176c-0.33-1.543-1.02-2.792-2.07-3.745
		c-1.052-0.952-2.629-1.43-4.732-1.43c-3.681,0-6.688,1.513-9.02,4.534c-2.333,3.023-3.5,6.77-3.5,11.238v23.757
		c0,2.76,0.476,4.633,1.43,5.62c0.951,0.983,2.513,1.477,4.682,1.477v2.071c-1.052-0.065-2.646-0.148-4.781-0.247
		c-2.136-0.098-4.354-0.148-6.654-0.148c-2.235,0-4.568,0.051-6.999,0.148c-2.432,0.099-4.239,0.182-5.422,0.247v-2.071
		c2.563,0,4.387-0.493,5.471-1.477c1.084-0.987,1.626-2.86,1.626-5.62V38.248c0-2.957-0.493-5.142-1.479-6.555
		c-0.985-1.413-2.859-2.12-5.619-2.12v-2.069c2.103,0.197,4.141,0.295,6.112,0.295c2.233,0,4.32-0.113,6.259-0.345
		c1.938-0.229,3.729-0.574,5.372-1.035v10.744c1.708-4.073,4.057-6.933,7.048-8.575C196.246,26.946,199.417,26.123,202.769,26.123z"
		/>
	<path fill="#2D2828" d="M249.886,26.123c5.785,0,10.316,1.742,13.605,5.225c3.283,3.484,4.928,9.005,4.928,16.561h-34.008
		l-0.197-1.873h23.756c0.064-3.219-0.197-6.193-0.789-8.921c-0.59-2.726-1.51-4.912-2.76-6.555
		c-1.248-1.643-2.893-2.465-4.928-2.465c-2.826,0-5.273,1.496-7.346,4.485c-2.068,2.991-3.334,7.772-3.795,14.343l0.297,0.492
		c-0.066,0.922-0.133,1.923-0.197,3.007c-0.066,1.084-0.1,2.153-0.1,3.204c0,4.535,0.691,8.347,2.072,11.435
		c1.379,3.09,3.186,5.407,5.422,6.95c2.23,1.546,4.5,2.315,6.803,2.315c2.625,0,5.174-0.655,7.639-1.971
		c2.463-1.313,4.584-3.746,6.355-7.295l1.975,0.788c-0.789,2.235-2.006,4.437-3.648,6.605c-1.645,2.169-3.746,3.929-6.311,5.273
		c-2.561,1.346-5.555,2.021-8.969,2.021c-4.602,0-8.609-1.035-12.027-3.104c-3.418-2.071-6.047-5.044-7.885-8.922
		c-1.842-3.877-2.76-8.478-2.76-13.801c0-5.849,0.951-10.844,2.857-14.983c1.906-4.141,4.584-7.311,8.033-9.514
		C241.361,27.225,245.353,26.123,249.886,26.123z"/>
	<path fill="#939393" d="M316.623,42.685c-2.104-1.051-4.008-2.563-5.717-4.535s-2.498-4.337-2.367-7.098
		c0.131-1.708,0.705-2.957,1.725-3.745c1.02-0.789,2.121-1.184,3.303-1.184c2.367,0,4.008,1.217,4.928,3.647
		c0.922,2.432,1.217,5.586,0.889,9.463c-0.393,3.813-1.117,7.64-2.168,11.484c-1.051,3.844-2.449,7.509-4.188,10.992
		c-1.744,3.483-3.846,6.588-6.313,9.314c-2.463,2.729-5.256,4.864-8.377,6.408c-3.123,1.544-6.588,2.316-10.398,2.316
		c-3.223,0-5.717-0.609-7.494-1.823c-1.775-1.216-3.023-2.76-3.746-4.635c-0.725-1.872-1.018-3.794-0.887-5.766
		c0.197-3.811,1.348-7.82,3.451-12.026c2.102-4.205,4.91-8.478,8.426-12.814c3.518-4.338,7.576-8.543,12.176-12.618
		c-1.25,0.329-2.498,0.872-3.746,1.627c-1.25,0.756-2.432,1.527-3.549,2.316c-1.117,0.788-2.201,1.463-3.252,2.021
		c-1.055,0.559-2.07,0.838-3.057,0.838c-1.248,0-2.303-0.377-3.156-1.134c-0.852-0.755-1.807-1.134-2.857-1.134
		s-1.891,0.411-2.514,1.232c-0.625,0.822-1.297,2.284-2.021,4.387l-0.984,3.352h-1.875l2.17-7.196
		c1.117-4.008,2.514-6.703,4.189-8.083c1.678-1.38,3.367-2.07,5.078-2.07c1.246,0,2.301,0.313,3.152,0.937
		c0.854,0.625,1.742,1.232,2.664,1.824c0.92,0.591,2.07,0.887,3.449,0.887c1.443,0,2.844-0.213,4.191-0.641
		c1.344-0.427,2.609-1.134,3.793-2.12l0.988-1.872l2.068,0.985c-3.416,4.338-6.342,8.773-8.773,13.308
		c-2.434,4.534-4.371,9.021-5.816,13.456c-1.447,4.437-2.303,8.856-2.564,13.258c-0.262,3.485,0,5.998,0.789,7.541
		c0.789,1.545,1.939,2.317,3.449,2.317c2.895,0,5.57-0.754,8.035-2.268c2.463-1.511,4.684-3.501,6.654-5.964
		c1.971-2.464,3.68-5.19,5.127-8.182c1.443-2.99,2.596-5.964,3.447-8.922C315.798,47.811,316.361,45.116,316.623,42.685z"/>
	<path fill="#939393" d="M334.859,35.98c1.25-3.811,0.82-5.718-1.279-5.718c-1.447,0-2.729,0.739-3.846,2.219
		c-1.119,1.479-2.268,3.829-3.451,7.048l-1.576,4.14h-1.871l2.561-7.294c1.512-4.074,3.434-6.784,5.768-8.132
		c2.332-1.347,4.648-2.021,6.951-2.021c2.957,0,4.943,0.725,5.963,2.169c1.018,1.445,1.428,3.237,1.232,5.372
		c-0.199,2.137-0.658,4.224-1.381,6.26L333.48,69.988c-0.658,1.843-0.855,3.255-0.592,4.24c0.262,0.985,0.953,1.479,2.07,1.479
		c1.182,0,2.332-0.641,3.449-1.923c1.117-1.281,2.367-3.729,3.746-7.344l1.578-4.041h1.871l-2.561,7.196
		c-1.381,3.878-3.223,6.539-5.521,7.985c-2.301,1.443-4.633,2.168-7,2.168c-2.826,0-4.814-0.642-5.963-1.923
		s-1.66-3.021-1.529-5.225c0.131-2.201,0.658-4.615,1.578-7.245L334.859,35.98z M338.115,10.153
		c0.262-2.103,1.182-3.811,2.758-5.125c1.578-1.314,3.383-1.972,5.422-1.972c1.906,0,3.4,0.608,4.486,1.824
		c1.084,1.216,1.492,2.71,1.23,4.484c-0.262,2.038-1.199,3.73-2.809,5.076c-1.611,1.349-3.436,2.021-5.471,2.021
		c-1.906,0-3.385-0.606-4.436-1.824C338.246,13.424,337.849,11.929,338.115,10.153z"/>
	<path fill="#939393" d="M359.207,69.988c-0.459,1.843-0.574,3.255-0.346,4.24c0.23,0.985,0.904,1.479,2.021,1.479
		c1.115,0,2.234-0.656,3.352-1.972c1.117-1.313,2.299-3.747,3.549-7.295l1.479-4.041h1.875l-2.467,7.196
		c-0.855,2.562-1.938,4.583-3.252,6.062c-1.314,1.479-2.729,2.53-4.24,3.156c-1.512,0.623-3.088,0.936-4.73,0.936
		c-2.826,0-4.797-0.689-5.914-2.069c-1.119-1.382-1.627-3.172-1.527-5.374c0.1-2.2,0.508-4.517,1.23-6.949l15.873-52.738
		c0.654-2.233,0.59-3.877-0.199-4.929c-0.789-1.05-2.793-1.577-6.014-1.577l0.691-2.07c3.943-0.064,7.441-0.443,10.498-1.134
		C374.14,2.219,377.083,1.25,379.91,0L359.207,69.988z"/>
	<path fill="#939393" d="M384.835,69.988c-0.461,1.843-0.576,3.255-0.346,4.24s0.904,1.479,2.021,1.479
		c1.115,0,2.232-0.656,3.352-1.972c1.117-1.313,2.299-3.747,3.547-7.295l1.48-4.041h1.873l-2.465,7.196
		c-0.855,2.562-1.939,4.583-3.252,6.062c-1.314,1.479-2.73,2.53-4.24,3.156c-1.512,0.623-3.09,0.936-4.73,0.936
		c-2.826,0-4.799-0.689-5.916-2.069c-1.117-1.382-1.625-3.172-1.527-5.374c0.1-2.2,0.51-4.517,1.23-6.949l15.873-52.738
		c0.656-2.233,0.592-3.877-0.197-4.929c-0.789-1.05-2.795-1.577-6.014-1.577l0.689-2.07c3.945-0.064,7.441-0.443,10.498-1.134
		c3.057-0.689,5.998-1.658,8.824-2.908L384.835,69.988z"/>
	<path fill="#939393" d="M408.986,56.287c3.352-1.184,6.424-2.397,9.215-3.646c2.795-1.248,5.078-2.596,6.852-4.042
		c2.43-2.036,4.354-4.451,5.768-7.246c1.412-2.792,2.121-5.864,2.121-9.216c0-1.708-0.135-2.81-0.396-3.303
		s-0.658-0.739-1.182-0.739c-1.906,0-4.043,1.102-6.406,3.302c-2.367,2.203-4.586,5.144-6.656,8.823
		c-2.07,3.681-3.777,7.723-5.127,12.125c-1.348,4.403-2.018,8.807-2.018,13.209c0,3.418,0.639,5.85,1.922,7.294
		c1.281,1.446,2.971,2.168,5.076,2.168c2.168,0,4.566-0.671,7.195-2.019s5.225-3.763,7.787-7.246l1.576,0.789
		c-1.314,2.168-3.023,4.272-5.125,6.308c-2.105,2.039-4.484,3.697-7.145,4.979c-2.664,1.281-5.539,1.923-8.627,1.923
		c-4.141,0-7.477-1.169-10.006-3.501c-2.529-2.331-3.795-5.798-3.795-10.399c0-3.021,0.543-6.323,1.625-9.906
		c1.086-3.581,2.629-7.112,4.635-10.597c2.002-3.482,4.387-6.687,7.148-9.611c2.76-2.924,5.848-5.24,9.266-6.949
		c3.414-1.709,7.029-2.563,10.842-2.563c2.367,0,4.338,0.576,5.916,1.725c1.574,1.15,2.363,2.876,2.363,5.176
		c0,2.63-0.738,5.077-2.217,7.344c-1.479,2.268-3.469,4.322-5.963,6.161c-2.5,1.841-5.209,3.484-8.135,4.929
		c-2.922,1.446-5.848,2.695-8.773,3.746c-2.922,1.052-5.535,1.906-7.834,2.563L408.986,56.287z"/>
</g>
</svg>
